<svg id="Capa_1" enable-background="new 0 0 511.907 511.907" height="512" viewBox="0 0 511.907 511.907" width="512" xmlns="http://www.w3.org/2000/svg"><g><g><path d="m7.5 24.711v36.886c0 9.472 7.679 17.151 17.151 17.151h121.818c4.415 0 8.686 1.57 12.05 4.429l50.385 42.827c3.595 3.056 9.12.501 9.12-4.217v-37.505c0-3.057 2.478-5.535 5.535-5.535h11.091c9.472 0 17.151-7.679 17.151-17.151v-36.885c0-9.472-7.679-17.151-17.151-17.151h-209.999c-9.472 0-17.151 7.679-17.151 17.151z" fill="#d1f19e"/></g><g><path d="m251.804 24.714v36.88c0 9.47-7.68 17.15-17.15 17.15h-11.1c-3.05 0-5.53 2.48-5.53 5.54v37.5c0 4.72-5.52 7.28-9.12 4.22l-10.66-9.06v-32.66c0-3.06 2.48-5.54 5.54-5.54h11.09c9.47 0 17.15-7.68 17.15-17.15v-36.88c0-9.47-7.68-17.15-17.15-17.15h19.78c9.47 0 17.15 7.68 17.15 17.15z" fill="#bbec6c"/></g><g><g><path d="m464.927 504.347h-417.947c-7.013 0-12.699-5.686-12.699-12.699v-312.736c0-7.013 5.686-12.699 12.699-12.699h417.947c7.013 0 12.699 5.686 12.699 12.699v312.736c0 7.013-5.685 12.699-12.699 12.699z" fill="#f2fbff"/></g><g><path d="m477.624 178.914v312.73c0 7.02-5.68 12.7-12.7 12.7h-20.56c7.01 0 12.7-5.68 12.7-12.7v-312.73c0-7.01-5.69-12.7-12.7-12.7h20.56c7.02 0 12.7 5.69 12.7 12.7z" fill="#dff6fd"/></g><g><path d="m255.954 335.28-194.44 169.067h194.44 194.439z" fill="#c8effe"/></g><g><path d="m34.281 178.912v78.184l211.692 103.682c6.296 3.084 13.664 3.084 19.96 0l211.692-103.682v-78.184c0-7.014-5.686-12.699-12.699-12.699h-417.946c-7.013 0-12.699 5.686-12.699 12.699z" fill="#99e6fc"/></g></g><g><g><path d="m504.407 107.093v86.662c0 9.33-7.563 16.894-16.894 16.894h-95.74c-4.349 0-8.556 1.546-11.869 4.363l-49.629 42.185c-3.541 3.01-8.983.493-8.983-4.154v-36.943c0-3.011-2.441-5.452-5.452-5.452h-10.925c-9.33 0-16.894-7.563-16.894-16.894v-86.662c0-9.33 7.563-16.894 16.894-16.894h182.599c9.33.001 16.893 7.565 16.893 16.895z" fill="#d9b1ee"/></g></g><g><g><path d="m372.424 210.644h19.35c-4.35 0-8.56 1.55-11.87 4.37l-49.63 42.18c-3.54 3.01-8.98.5-8.98-4.15v-4.66l39.26-33.37c3.31-2.82 7.52-4.37 11.87-4.37z" fill="#cb97e7"/></g><g><path d="m504.404 107.094v86.66c0 9.33-7.56 16.89-16.89 16.89h-19.35c9.33 0 16.89-7.56 16.89-16.89v-86.66c0-9.33-7.56-16.89-16.89-16.89h19.35c9.33 0 16.89 7.56 16.89 16.89z" fill="#cb97e7"/></g></g><g><path d="m153.662 88.891 50.385 42.827c2.424 2.061 5.39 3.125 8.405 3.125 1.855 0 3.73-.403 5.508-1.225 4.666-2.157 7.564-6.691 7.564-11.831v-35.54h9.126c13.592 0 24.65-11.058 24.65-24.65v-36.886c0-13.592-11.058-24.651-24.65-24.651h-209.999c-13.592 0-24.651 11.059-24.651 24.651v36.886c0 13.592 11.059 24.65 24.651 24.65h121.818c2.633 0 5.187.939 7.193 2.644zm-138.662-27.294v-36.886c0-5.321 4.33-9.651 9.651-9.651h209.999c5.321 0 9.65 4.33 9.65 9.651v36.886c0 5.321-4.329 9.65-9.65 9.65h-11.091c-7.188 0-13.035 5.848-13.035 13.035v33.254l-47.147-40.075c-4.714-4.008-10.719-6.215-16.907-6.215h-121.819c-5.321.001-9.651-4.328-9.651-9.649z"/><path d="m504.407 121.832c4.142 0 7.5-3.358 7.5-7.5v-7.239c0-13.451-10.943-24.394-24.394-24.394h-182.598c-13.451 0-24.394 10.943-24.394 24.394v51.621h-233.541c-11.138 0-20.199 9.062-20.199 20.199v312.735c0 11.138 9.061 20.199 20.199 20.199h417.947c11.138 0 20.199-9.062 20.199-20.199v-273.5h2.388c13.451 0 24.394-10.943 24.394-24.393v-44.636c0-4.142-3.358-7.5-7.5-7.5s-7.5 3.358-7.5 7.5v44.636c0 5.179-4.214 9.393-9.394 9.393h-95.74c-6.121 0-12.061 2.184-16.727 6.149l-46.255 39.316v-32.513c0-7.142-5.811-12.952-12.952-12.952h-10.925c-5.18 0-9.394-4.214-9.394-9.393v-86.662c0-5.18 4.214-9.394 9.394-9.394h182.599c5.18 0 9.394 4.214 9.394 9.394v7.239c-.001 4.142 3.357 7.5 7.499 7.5zm-422.837 375.015 153.197-133.206 7.907 3.873c4.22 2.067 8.749 3.101 13.279 3.101 4.529 0 9.06-1.034 13.279-3.101l7.908-3.873 153.197 133.207h-348.767zm388.556-5.199c0 2.867-2.332 5.199-5.199 5.199h-11.729l-161.435-140.368 178.363-87.358zm-165.211-273.501h8.877v34.894c0 5.107 2.88 9.612 7.516 11.756 1.767.817 3.629 1.218 5.473 1.218 2.996 0 5.943-1.058 8.352-3.105l49.629-42.185c1.956-1.663 4.447-2.578 7.013-2.578h78.353v34.271l-207.494 101.625c-4.245 2.08-9.115 2.079-13.362 0l-119.746-58.648c-3.719-1.823-8.213-.284-10.034 3.437-1.822 3.72-.284 8.212 3.437 10.034l97.215 47.614-161.435 140.367h-11.729c-2.867 0-5.199-2.333-5.199-5.199v-222.527l49.709 24.346c3.718 1.821 8.212.283 10.034-3.437s.284-8.212-3.437-10.034l-56.307-27.578v-73.506c0-2.867 2.332-5.199 5.199-5.199h233.541v20.041c.001 13.451 10.944 24.393 24.395 24.393z"/><path d="m464.362 113.698h-31.134c-4.142 0-7.5 3.358-7.5 7.5s3.358 7.5 7.5 7.5h31.134c4.142 0 7.5-3.358 7.5-7.5s-3.358-7.5-7.5-7.5z"/><path d="m328.066 128.698h70.556c4.142 0 7.5-3.358 7.5-7.5s-3.358-7.5-7.5-7.5h-70.556c-4.142 0-7.5 3.358-7.5 7.5s3.358 7.5 7.5 7.5z"/><path d="m464.362 142.923h-136.296c-4.142 0-7.5 3.358-7.5 7.5s3.358 7.5 7.5 7.5h136.296c4.142 0 7.5-3.358 7.5-7.5s-3.358-7.5-7.5-7.5z"/><path d="m464.362 172.149h-54.204c-4.142 0-7.5 3.358-7.5 7.5s3.358 7.5 7.5 7.5h54.204c4.142 0 7.5-3.358 7.5-7.5s-3.358-7.5-7.5-7.5z"/><path d="m328.066 172.149c-4.142 0-7.5 3.358-7.5 7.5s3.358 7.5 7.5 7.5h47.538c4.142 0 7.5-3.358 7.5-7.5s-3.358-7.5-7.5-7.5z"/></g></g></svg>